<?xml version="1.0" encoding="UTF-8" standalone="no"?>
<svg xmlns="http://www.w3.org/2000/svg" version="1.2" baseProfile="tiny" viewBox="0.00 0.00 512.00 512.00">
<g stroke-width="2.00" fill="none" stroke-linecap="butt">
<path stroke="#88a5c3" vector-effect="non-scaling-stroke" d="
  M 115.25 200.02
  Q 155.72 199.91 196.18 200.15
  C 204.93 200.20 216.50 201.08 223.38 207.04
  C 231.27 213.86 231.03 226.57 231.06 236.00
  Q 231.25 297.11 231.28 358.03
  A 0.48 0.48 0.0 0 0 231.76 358.50
  L 286.49 358.50
  Q 287.00 358.50 287.00 357.99
  Q 287.04 278.99 286.90 200.01
  C 286.83 163.63 254.59 154.06 224.74 154.01
  Q 179.21 153.94 58.49 154.03
  Q 58.00 154.03 58.00 154.52
  L 58.00 358.00
  A 0.50 0.50 0.0 0 0 58.50 358.50
  L 114.25 358.50
  A 0.50 0.50 0.0 0 0 114.75 358.00
  L 114.75 200.52
  Q 114.75 200.02 115.25 200.02"
/>
<path stroke="#88a5c3" vector-effect="non-scaling-stroke" d="
  M 388.33 292.33
  C 394.25 309.30 367.42 312.75 357.68 312.82
  Q 328.71 313.05 300.01 313.00
  A 0.51 0.51 0.0 0 0 299.50 313.51
  L 299.50 357.99
  Q 299.50 358.48 299.99 358.48
  Q 329.97 358.58 359.94 358.34
  C 394.86 358.06 452.33 351.05 454.42 303.96
  C 455.47 280.21 445.38 266.41 424.86 255.86
  Q 424.24 255.54 424.83 255.17
  C 436.35 248.06 445.66 240.55 447.92 226.34
  C 450.54 209.91 449.62 191.68 438.77 178.32
  C 423.48 159.49 389.48 154.85 367.24 154.23
  Q 347.42 153.68 299.86 154.11
  Q 299.49 154.12 299.49 154.49
  L 299.50 199.45
  Q 299.50 200.00 300.05 200.00
  Q 326.20 199.99 352.35 200.03
  Q 361.35 200.04 365.49 200.73
  C 373.56 202.08 388.86 206.75 388.36 217.60
  C 387.76 230.51 364.46 233.83 355.00 233.81
  Q 327.54 233.76 300.02 233.74
  Q 299.50 233.74 299.50 234.26
  L 299.50 277.99
  Q 299.50 278.50 300.01 278.50
  Q 326.54 278.49 353.06 278.53
  C 363.30 278.54 384.13 280.31 388.33 292.33"
/>
<path stroke="#88a5c3" vector-effect="non-scaling-stroke" d="
  M 200.53 234.01
  A 0.26 0.26 0.0 0 0 200.27 233.75
  L 148.01 233.75
  A 0.26 0.26 0.0 0 0 147.75 234.01
  L 147.75 358.23
  A 0.26 0.26 0.0 0 0 148.01 358.49
  L 200.27 358.49
  A 0.26 0.26 0.0 0 0 200.53 358.23
  L 200.53 234.01"
/>
</g>
<path fill="#fefefe" d="
  M 0.00 0.00
  L 512.00 0.00
  L 512.00 512.00
  L 0.00 512.00
  L 0.00 0.00
  Z
  M 115.25 200.02
  Q 155.72 199.91 196.18 200.15
  C 204.93 200.20 216.50 201.08 223.38 207.04
  C 231.27 213.86 231.03 226.57 231.06 236.00
  Q 231.25 297.11 231.28 358.03
  A 0.48 0.48 0.0 0 0 231.76 358.50
  L 286.49 358.50
  Q 287.00 358.50 287.00 357.99
  Q 287.04 278.99 286.90 200.01
  C 286.83 163.63 254.59 154.06 224.74 154.01
  Q 179.21 153.94 58.49 154.03
  Q 58.00 154.03 58.00 154.52
  L 58.00 358.00
  A 0.50 0.50 0.0 0 0 58.50 358.50
  L 114.25 358.50
  A 0.50 0.50 0.0 0 0 114.75 358.00
  L 114.75 200.52
  Q 114.75 200.02 115.25 200.02
  Z
  M 388.33 292.33
  C 394.25 309.30 367.42 312.75 357.68 312.82
  Q 328.71 313.05 300.01 313.00
  A 0.51 0.51 0.0 0 0 299.50 313.51
  L 299.50 357.99
  Q 299.50 358.48 299.99 358.48
  Q 329.97 358.58 359.94 358.34
  C 394.86 358.06 452.33 351.05 454.42 303.96
  C 455.47 280.21 445.38 266.41 424.86 255.86
  Q 424.24 255.54 424.83 255.17
  C 436.35 248.06 445.66 240.55 447.92 226.34
  C 450.54 209.91 449.62 191.68 438.77 178.32
  C 423.48 159.49 389.48 154.85 367.24 154.23
  Q 347.42 153.68 299.86 154.11
  Q 299.49 154.12 299.49 154.49
  L 299.50 199.45
  Q 299.50 200.00 300.05 200.00
  Q 326.20 199.99 352.35 200.03
  Q 361.35 200.04 365.49 200.73
  C 373.56 202.08 388.86 206.75 388.36 217.60
  C 387.76 230.51 364.46 233.83 355.00 233.81
  Q 327.54 233.76 300.02 233.74
  Q 299.50 233.74 299.50 234.26
  L 299.50 277.99
  Q 299.50 278.50 300.01 278.50
  Q 326.54 278.49 353.06 278.53
  C 363.30 278.54 384.13 280.31 388.33 292.33
  Z
  M 200.53 234.01
  A 0.26 0.26 0.0 0 0 200.27 233.75
  L 148.01 233.75
  A 0.26 0.26 0.0 0 0 147.75 234.01
  L 147.75 358.23
  A 0.26 0.26 0.0 0 0 148.01 358.49
  L 200.27 358.49
  A 0.26 0.26 0.0 0 0 200.53 358.23
  L 200.53 234.01
  Z"
/>
<g>
<path fill="#114b88" d="
  M 114.75 200.52
  L 114.75 358.00
  A 0.50 0.50 0.0 0 1 114.25 358.50
  L 58.50 358.50
  A 0.50 0.50 0.0 0 1 58.00 358.00
  L 58.00 154.52
  Q 58.00 154.03 58.49 154.03
  Q 179.21 153.94 224.74 154.01
  C 254.59 154.06 286.83 163.63 286.90 200.01
  Q 287.04 278.99 287.00 357.99
  Q 287.00 358.50 286.49 358.50
  L 231.76 358.50
  A 0.48 0.48 0.0 0 1 231.28 358.03
  Q 231.25 297.11 231.06 236.00
  C 231.03 226.57 231.27 213.86 223.38 207.04
  C 216.50 201.08 204.93 200.20 196.18 200.15
  Q 155.72 199.91 115.25 200.02
  Q 114.75 200.02 114.75 200.52
  Z"
/>
<path fill="#114b88" d="
  M 388.33 292.33
  C 384.13 280.31 363.30 278.54 353.06 278.53
  Q 326.54 278.49 300.01 278.50
  Q 299.50 278.50 299.50 277.99
  L 299.50 234.26
  Q 299.50 233.74 300.02 233.74
  Q 327.54 233.76 355.00 233.81
  C 364.46 233.83 387.76 230.51 388.36 217.60
  C 388.86 206.75 373.56 202.08 365.49 200.73
  Q 361.35 200.04 352.35 200.03
  Q 326.20 199.99 300.05 200.00
  Q 299.50 200.00 299.50 199.45
  L 299.49 154.49
  Q 299.49 154.12 299.86 154.11
  Q 347.42 153.68 367.24 154.23
  C 389.48 154.85 423.48 159.49 438.77 178.32
  C 449.62 191.68 450.54 209.91 447.92 226.34
  C 445.66 240.55 436.35 248.06 424.83 255.17
  Q 424.24 255.54 424.86 255.86
  C 445.38 266.41 455.47 280.21 454.42 303.96
  C 452.33 351.05 394.86 358.06 359.94 358.34
  Q 329.97 358.58 299.99 358.48
  Q 299.50 358.48 299.50 357.99
  L 299.50 313.51
  A 0.51 0.51 0.0 0 1 300.01 313.00
  Q 328.71 313.05 357.68 312.82
  C 367.42 312.75 394.25 309.30 388.33 292.33
  Z"
/>
<rect fill="#114b88" x="147.75" y="233.75" width="52.78" height="124.74" rx="0.26"/>
</g>
</svg>
